<svg width="28" height="48" viewBox="0 0 28 48" fill="none" xmlns="http://www.w3.org/2000/svg">
<path d="M27.8365 39.6765C27.9405 40.6818 27.2992 41.3925 25.9125 41.8085C25.4618 41.7391 24.8032 41.7565 23.9365 41.8605C23.3125 41.8605 21.3538 42.3631 18.0605 43.3685C14.3512 44.4085 11.5952 45.3791 9.79251 46.2805C9.30718 46.5231 8.85651 46.8351 8.44051 47.2165C8.05918 47.6325 7.81651 47.8405 7.71251 47.8405C7.19251 47.9098 5.68451 47.0085 3.18851 45.1365C2.49518 44.7205 1.80184 44.2698 1.10851 43.7845C0.415176 43.2991 0.0511758 42.7271 0.0165091 42.0685C0.0165091 41.8258 1.52451 39.5551 4.54051 35.2565C8.24984 29.9871 11.1272 25.5845 13.1725 22.0485C16.3272 16.4671 18.0258 12.0471 18.2685 8.78846C15.5645 9.8978 12.8605 12.3938 10.1565 16.2765C9.94851 16.4498 9.80984 16.7791 9.74051 17.2645C9.70584 17.7151 9.61918 18.0271 9.48051 18.2005C9.13384 18.6511 8.63118 18.8765 7.97251 18.8765C6.82851 18.8765 5.44184 18.3218 3.81251 17.2125C3.11918 16.8311 2.42584 16.4498 1.73251 16.0685C0.900509 15.6178 0.467176 15.2191 0.432509 14.8725C0.363176 14.0751 1.22984 12.5325 3.03251 10.2445C4.97384 7.8178 7.12318 5.75513 9.48051 4.05646C12.2885 1.97646 14.7845 0.936463 16.9685 0.936463C17.8005 0.936463 18.5805 1.2138 19.3085 1.76846C20.0712 2.28846 20.7992 2.8258 21.4925 3.38046C24.3005 5.3218 26.0858 7.15913 26.8485 8.89246C26.9872 9.23913 27.0565 9.6898 27.0565 10.2445C27.0565 12.6711 25.7738 16.6231 23.2085 22.1005C20.7818 27.2658 18.1818 31.7551 15.4085 35.5685C16.4832 35.2218 17.9738 34.7018 19.8805 34.0085C20.0885 33.9045 20.4525 33.6618 20.9725 33.2805C21.3192 33.0378 21.6485 32.9338 21.9605 32.9685C22.7925 33.0725 23.9538 34.0605 25.4445 35.9325C26.9698 37.7698 27.7672 39.0178 27.8365 39.6765Z" fill="#FB923C"/>
</svg>
